<svg xmlns="http://www.w3.org/2000/svg" version="1.1" xmlns:xlink="http://www.w3.org/1999/xlink" xmlns:svgjs="http://svgjs.dev/svgjs" width="100%" height="100%" viewBox="0 0 1000 600"><rect width="1000" height="600" x="0" y="0" fill="#4B0082&#9;"/><g><circle r="166.66666666666666" cx="381.48159281412757" cy="403.70385003606475" fill="000000" transform="matrix(0.5818962088098176,0,0,0.5818962088098176,0,65.08626991613832)"/><path d="M355.792269516225 463.47713471892627L427.4834473274022 463.47713471892627L427.4834473274022 478.7038506899327L335.4797691363915 478.7038506899327L335.4797691363915 328.7038478850082L355.792269516225 328.7038478850082L355.792269516225 463.47713471892627Z " fill="#FFFAFA&#9;" transform="matrix(0.5818962088098176,0,0,0.5818962088098176,0,65.08626991613832)"/><path d="M644.5242309971585 434.0874552336499L690.5570178824044 434.0874552336499L690.5570178824044 443.8645044139778L631.4816080463388 443.8645044139778L631.4816080463388 347.54975031561713L644.5242309971585 347.54975031561713L644.5242309971585 434.0874552336499ZM770.1504605053552 434.6579470369286L770.9963621446994 443.726799495945Q765.9012801774863 445.5563076926663 760.8061982102732 445.71368474184663L760.8061982102732 445.71368474184663Q755.1406244397815 445.71368474184663 751.5209523086339 443.4317175287319Q747.9209523086339 441.16942244676466 747.0553785381421 435.50384867627287L747.0553785381421 435.50384867627287Q733.599640833224 445.85138965987943 722.1307883742077 445.85138965987943L722.1307883742077 445.85138965987943Q713.2193129643716 445.85138965987943 707.5537391938798 440.67761916807615Q701.888165423388 435.50384867627287 701.888165423388 427.71368474184663L701.888165423388 427.71368474184663Q701.888165423388 420.4940126106991 705.8422637840438 415.7530290041417Q709.816034275847 411.01204539758436 716.9570178824044 407.8841765451253Q724.1176736201094 404.7759798238138 736.2947228004372 401.2349962172565L736.2947228004372 401.2349962172565L746.7799687020765 398.26450441397776L746.7799687020765 392.73663556151877Q746.7799687020765 375.73991425004334 733.8947228004372 375.73991425004334L733.8947228004372 375.73991425004334Q726.8127555873225 375.73991425004334 720.8520998496175 378.6317175287319Q714.9111162430602 381.5431929385679 707.3963621446994 389.47106179102695L707.3963621446994 389.47106179102695L702.1635752594536 381.5431929385679Q718.0193129643716 365.6874552336499 736.2947228004372 365.6874552336499L736.2947228004372 365.6874552336499Q748.4717719807651 365.6874552336499 753.9406244397815 372.0612257254532Q759.3898047676503 378.43499621725647 759.3898047676503 393.30712736479745L759.3898047676503 393.30712736479745L759.3898047676503 430.27106179102697Q759.3898047676503 433.3792585123384 760.5111162430601 434.73663556151877Q761.6520998496176 436.07434047955155 764.0520998496175 436.07434047955155L764.0520998496175 436.07434047955155Q766.1766900135519 436.07434047955155 770.1504605053552 434.6579470369286L770.1504605053552 434.6579470369286ZM714.4783293578142 426.73007818446956Q714.4783293578142 431.54975031561713 717.3111162430602 433.8120453975843Q720.143903128306 436.07434047955155 724.8258703414208 436.07434047955155L724.8258703414208 436.07434047955155Q729.6455424725683 436.07434047955155 734.8193129643716 433.6743404795515Q739.9734113250273 431.254668348404 746.7799687020765 426.2972912992237L746.7799687020765 426.2972912992237L746.7799687020765 406.6054880205351L738.7143949315847 409.02516015168266Q725.2586572266666 413.13663556151874 719.8684932922405 416.9530290041417Q714.4783293578142 420.7694224467646 714.4783293578142 426.73007818446956L714.4783293578142 426.73007818446956ZM825.2520998496175 365.6874552336499Q837.704558866011 365.6874552336499 842.4652146037158 372.2579470369286Q847.2061982102732 378.84811097135486 847.2061982102732 391.182537200863L847.2061982102732 391.182537200863L847.2061982102732 443.8645044139778L834.5963621446995 443.8645044139778L834.5963621446995 392.3038486762729Q834.5963621446995 383.3923732664368 831.7635752594535 379.5563076926663Q828.9307883742076 375.73991425004334 821.9865260791257 375.73991425004334L821.9865260791257 375.73991425004334Q816.7537391938798 375.73991425004334 811.3635752594536 378.1399142500434Q805.9930834561749 380.5595863811909 799.6193129643716 385.5169634303712L799.6193129643716 385.5169634303712L799.6193129643716 443.8645044139778L787.0094768987979 443.8645044139778L787.0094768987979 368.2251601516827L796.7865260791257 368.2251601516827L798.616034275847 376.15302900414173Q812.3668539479781 365.6874552336499 825.2520998496175 365.6874552336499L825.2520998496175 365.6874552336499ZM919.304558866011 330.5530290041417L931.8947228004372 330.5530290041417L931.8947228004372 443.8645044139778L922.1373457512568 443.8645044139778L920.720952308634 437.4907339221745Q910.3734113250273 446.4218814631581 897.9012801774863 446.4218814631581L897.9012801774863 446.4218814631581Q888.6947228004371 446.4218814631581 881.5537391938799 441.8186027746335Q874.393083456175 437.2153240861089 870.4389850955192 428.4218814631581Q866.4652146037158 419.6481109713548 866.4652146037158 407.31368474184666L866.4652146037158 407.31368474184666Q866.4652146037158 386.63827490578103 877.0094768987979 376.15302900414173Q887.5734113250273 365.6874552336499 905.1406244397815 365.6874552336499L905.1406244397815 365.6874552336499Q913.0684932922404 365.6874552336499 919.304558866011 368.0874552336499L919.304558866011 368.0874552336499L919.304558866011 330.5530290041417ZM879.3504605053553 407.31368474184666Q879.3504605053553 422.61860277463353 884.9570178824044 429.5628650697155Q890.543903128306 436.50712736479744 898.7668539479782 436.50712736479744L898.7668539479782 436.50712736479744Q904.7078375545356 436.50712736479744 909.23242771847 434.6579470369286Q913.776690013552 432.80876670905974 919.304558866011 428.7169634303712L919.304558866011 428.7169634303712L919.304558866011 377.8645044139778Q913.343903128306 375.44483228283025 905.6914441119126 375.44483228283025L905.6914441119126 375.44483228283025Q892.393083456175 375.44483228283025 885.8619359151913 384.0218814631581Q879.3504605053553 392.59893064348597 879.3504605053553 407.31368474184666L879.3504605053553 407.31368474184666ZM965.6127555873225 344.854668348404Q962.3471818168307 344.854668348404 959.9471818168306 342.51368474184665Q957.5471818168306 340.1923732664368 957.5471818168306 336.926799495945L957.5471818168306 336.926799495945Q957.5471818168306 333.52352080742037 959.9471818168306 331.1235208074204Q962.3471818168307 328.70384867627286 965.6127555873225 328.70384867627286L965.6127555873225 328.70384867627286Q969.016034275847 328.70384867627286 971.416034275847 331.1235208074204Q973.8357064069946 333.52352080742037 973.8357064069946 336.926799495945L973.8357064069946 336.926799495945Q973.8357064069946 340.1923732664368 971.416034275847 342.51368474184665Q969.016034275847 344.854668348404 965.6127555873225 344.854668348404L965.6127555873225 344.854668348404ZM959.376690013552 443.8645044139778L959.376690013552 368.2251601516827L971.9865260791257 368.2251601516827L971.9865260791257 443.8645044139778L959.376690013552 443.8645044139778ZM1037.848821161093 365.6874552336499Q1050.3209523086339 365.6874552336499 1055.0619359151913 372.2579470369286Q1059.8029195217487 378.84811097135486 1059.8029195217487 391.182537200863L1059.8029195217487 391.182537200863L1059.8029195217487 443.8645044139778L1047.193083456175 443.8645044139778L1047.193083456175 392.3038486762729Q1047.193083456175 383.3923732664368 1044.360296570929 379.5563076926663Q1041.527509685683 375.73991425004334 1034.5832473906012 375.73991425004334L1034.5832473906012 375.73991425004334Q1029.3504605053554 375.73991425004334 1023.960296570929 378.1399142500434Q1018.5898047676503 380.5595863811909 1012.216034275847 385.5169634303712L1012.216034275847 385.5169634303712L1012.216034275847 443.8645044139778L999.6061982102733 443.8645044139778L999.6061982102733 368.2251601516827L1009.3832473906011 368.2251601516827L1011.2127555873225 376.15302900414173Q1024.9635752594536 365.6874552336499 1037.848821161093 365.6874552336499L1037.848821161093 365.6874552336499ZM1150.314394931585 368.2251601516827L1150.314394931585 377.726799495945L1133.7307883742078 376.15302900414173Q1137.9799687020763 382.526799495945 1137.9799687020763 390.47434047955153L1137.9799687020763 390.47434047955153Q1137.9799687020763 397.2612257254532 1134.871771980765 403.00548802053515Q1131.7635752594535 408.73007818446956 1125.527509685683 412.2120453975843Q1119.2914441119126 415.6743404795515 1110.2225916528962 415.6743404795515L1110.2225916528962 415.6743404795515Q1105.8357064069946 415.6743404795515 1101.1537391938798 414.6907339221745L1101.1537391938798 414.6907339221745Q1097.0619359151913 418.09401261069905 1095.2914441119126 420.4153240861089Q1093.520952308634 422.75630769266627 1093.520952308634 425.4513896598794L1093.520952308634 425.4513896598794Q1093.520952308634 428.55958638119085 1095.783247390601 429.9169634303712Q1098.0455424725683 431.254668348404 1103.1406244397815 431.254668348404L1103.1406244397815 431.254668348404L1127.2193129643717 431.254668348404Q1137.5668539479782 431.254668348404 1143.2914441119128 436.21204539758435Q1149.0357064069944 441.16942244676466 1149.0357064069944 449.5300781844696L1149.0357064069944 449.5300781844696Q1149.0357064069944 457.5956519549614 1143.5078375545354 464.3235208074204Q1137.9799687020763 471.05138965987936 1128.360296570929 474.8874552336499Q1118.720952308634 478.7038486762729 1106.8193129643716 478.7038486762729L1106.8193129643716 478.7038486762729Q1091.2389850955192 478.7038486762729 1084.3734113250275 473.1169634303712Q1077.5078375545356 467.510406053322 1077.5078375545356 459.01204539758436L1077.5078375545356 459.01204539758436Q1077.5078375545356 453.2087667090597 1080.4783293578143 448.8218814631581Q1083.448821161093 444.43499621725647 1089.6848867348635 439.6153240861089L1089.6848867348635 439.6153240861089Q1081.1865260791258 436.3497503156171 1081.1865260791258 428.0087667090597L1081.1865260791258 428.0087667090597Q1081.1865260791258 423.7595863811909 1083.881608046339 419.8645044139778Q1086.576690013552 415.96942244676467 1092.8127555873225 411.01204539758436L1092.8127555873225 411.01204539758436Q1087.6980014889618 407.74647162709255 1085.0225916528962 402.3563076926663Q1082.327509685683 396.9858158893876 1082.327509685683 390.7497503156171L1082.327509685683 390.7497503156171Q1082.327509685683 383.94319293856796 1085.4357064069945 378.2186027746335Q1088.5635752594535 372.47434047955153 1094.8586572266668 369.0710617910269Q1101.1537391938798 365.6874552336499 1110.2225916528962 365.6874552336499L1110.2225916528962 365.6874552336499Q1117.5996408332242 365.6874552336499 1123.6783293578142 368.2251601516827L1123.6783293578142 368.2251601516827L1150.314394931585 368.2251601516827ZM1110.0848867348634 406.3300781844696Q1117.166853947978 406.3300781844696 1121.3373457512569 402.0022093320106Q1125.527509685683 397.6940126106991 1125.527509685683 390.6120453975843L1125.527509685683 390.6120453975843Q1125.527509685683 383.66778310250237 1121.416034275847 379.33991425004336Q1117.304558866011 375.03171752873186 1110.0848867348634 375.03171752873186L1110.0848867348634 375.03171752873186Q1103.0029195217487 375.03171752873186 1098.8914441119127 379.33991425004336Q1094.7799687020765 383.66778310250237 1094.7799687020765 390.6120453975843L1094.7799687020765 390.6120453975843Q1094.7799687020765 397.6940126106991 1098.8914441119127 402.0022093320106Q1103.0029195217487 406.3300781844696 1110.0848867348634 406.3300781844696L1110.0848867348634 406.3300781844696ZM1137.1340670627324 451.2218814631581Q1137.1340670627324 441.46450441397775 1125.23242771847 441.46450441397775L1125.23242771847 441.46450441397775L1101.8619359151912 441.46450441397775L1100.1701326365028 441.46450441397775Q1094.937345751257 445.71368474184663 1092.2422637840439 449.66778310250237Q1089.5471818168307 453.64155359430566 1089.5471818168307 458.16614375824L1089.5471818168307 458.16614375824Q1089.5471818168307 463.96942244676467 1094.0127555873225 466.526799495945Q1098.4783293578143 469.08417654512533 1106.8193129643716 469.08417654512533L1106.8193129643716 469.08417654512533Q1115.3176736201094 469.08417654512533 1122.2619359151913 466.4481109713548Q1129.2061982102732 463.8317175287319 1133.1799687020766 459.6612257254532Q1137.1340670627324 455.47106179102695 1137.1340670627324 451.2218814631581L1137.1340670627324 451.2218814631581ZM1235.4357064069945 347.54975031561713Q1252.43242771847 347.54975031561713 1261.1471818168307 355.1235208074204Q1269.8619359151912 362.69729129922365 1269.8619359151912 375.87761916807614L1269.8619359151912 375.87761916807614Q1269.8619359151912 389.33335687299416 1261.1471818168307 396.84811097135486Q1252.43242771847 404.34319293856794 1235.4357064069945 404.34319293856794L1235.4357064069945 404.34319293856794L1215.743903128306 404.34319293856794L1215.743903128306 443.8645044139778L1202.720952308634 443.8645044139778L1202.720952308634 347.54975031561713L1235.4357064069945 347.54975031561713ZM1235.4357064069945 394.4284388402073Q1256.8193129643716 394.4284388402073 1256.8193129643716 375.87761916807614L1256.8193129643716 375.87761916807614Q1256.8193129643716 367.10384867627283 1251.2914441119126 362.20548802053514Q1245.783247390601 357.326799495945 1235.4357064069945 357.326799495945L1235.4357064069945 357.326799495945L1215.743903128306 357.326799495945L1215.743903128306 394.4284388402073L1235.4357064069945 394.4284388402073ZM1349.3176736201094 434.6579470369286L1350.1635752594536 443.726799495945Q1345.0684932922404 445.5563076926663 1339.9734113250274 445.71368474184663L1339.9734113250274 445.71368474184663Q1334.3078375545356 445.71368474184663 1330.688165423388 443.4317175287319Q1327.0684932922404 441.16942244676466 1326.2225916528962 435.50384867627287L1326.2225916528962 435.50384867627287Q1312.7668539479782 445.85138965987943 1301.2980014889617 445.85138965987943L1301.2980014889617 445.85138965987943Q1292.3668539479781 445.85138965987943 1286.7012801774863 440.67761916807615Q1281.0357064069947 435.50384867627287 1281.0357064069947 427.71368474184663L1281.0357064069947 427.71368474184663Q1281.0357064069947 420.4940126106991 1285.0094768987979 415.7530290041417Q1288.9832473906013 411.01204539758436 1296.1242309971585 407.8841765451253Q1303.2848867348634 404.7759798238138 1315.4619359151914 401.2349962172565L1315.4619359151914 401.2349962172565L1325.9471818168306 398.26450441397776L1325.9471818168306 392.73663556151877Q1325.9471818168306 375.73991425004334 1313.0619359151913 375.73991425004334L1313.0619359151913 375.73991425004334Q1305.9799687020766 375.73991425004334 1300.0193129643717 378.6317175287319Q1294.0783293578143 381.5431929385679 1286.5635752594535 389.47106179102695L1286.5635752594535 389.47106179102695L1281.3307883742077 381.5431929385679Q1297.1865260791255 365.6874552336499 1315.4619359151914 365.6874552336499L1315.4619359151914 365.6874552336499Q1327.6389850955193 365.6874552336499 1333.088165423388 372.0612257254532Q1338.5570178824046 378.43499621725647 1338.5570178824046 393.30712736479745L1338.5570178824046 393.30712736479745L1338.5570178824046 430.27106179102697Q1338.5570178824046 433.3792585123384 1339.6783293578142 434.73663556151877Q1340.8193129643716 436.07434047955155 1343.2193129643717 436.07434047955155L1343.2193129643717 436.07434047955155Q1345.343903128306 436.07434047955155 1349.3176736201094 434.6579470369286L1349.3176736201094 434.6579470369286ZM1293.6455424725682 426.73007818446956Q1293.6455424725682 431.54975031561713 1296.4783293578143 433.8120453975843Q1299.31111624306 436.07434047955155 1303.993083456175 436.07434047955155L1303.993083456175 436.07434047955155Q1308.8127555873225 436.07434047955155 1313.966853947978 433.6743404795515Q1319.1406244397815 431.254668348404 1325.9471818168306 426.2972912992237L1325.9471818168306 426.2972912992237L1325.9471818168306 406.6054880205351L1317.8619359151912 409.02516015168266Q1304.4061982102733 413.13663556151874 1299.0357064069944 416.9530290041417Q1293.6455424725682 420.7694224467646 1293.6455424725682 426.73007818446956L1293.6455424725682 426.73007818446956ZM1430.760296570929 368.2251601516827L1430.760296570929 377.726799495945L1414.1766900135522 376.15302900414173Q1418.4258703414207 382.526799495945 1418.4258703414207 390.47434047955153L1418.4258703414207 390.47434047955153Q1418.4258703414207 397.2612257254532 1415.3176736201094 403.00548802053515Q1412.209476898798 408.73007818446956 1405.9734113250274 412.2120453975843Q1399.737345751257 415.6743404795515 1390.6684932922406 415.6743404795515L1390.6684932922406 415.6743404795515Q1386.281608046339 415.6743404795515 1381.5996408332242 414.6907339221745L1381.5996408332242 414.6907339221745Q1377.5078375545356 418.09401261069905 1375.737345751257 420.4153240861089Q1373.966853947978 422.75630769266627 1373.966853947978 425.4513896598794L1373.966853947978 425.4513896598794Q1373.966853947978 428.55958638119085 1376.2291490299453 429.9169634303712Q1378.4914441119126 431.254668348404 1383.5865260791256 431.254668348404L1383.5865260791256 431.254668348404L1407.6652146037159 431.254668348404Q1418.0127555873225 431.254668348404 1423.737345751257 436.21204539758435Q1429.4816080463388 441.16942244676466 1429.4816080463388 449.5300781844696L1429.4816080463388 449.5300781844696Q1429.4816080463388 457.5956519549614 1423.9537391938798 464.3235208074204Q1418.4258703414207 471.05138965987936 1408.8061982102731 474.8874552336499Q1399.1668539479783 478.7038486762729 1387.2652146037158 478.7038486762729L1387.2652146037158 478.7038486762729Q1371.6848867348635 478.7038486762729 1364.8193129643716 473.1169634303712Q1357.9537391938798 467.510406053322 1357.9537391938798 459.01204539758436L1357.9537391938798 459.01204539758436Q1357.9537391938798 453.2087667090597 1360.9242309971587 448.8218814631581Q1363.8947228004372 444.43499621725647 1370.1307883742077 439.6153240861089L1370.1307883742077 439.6153240861089Q1361.63242771847 436.3497503156171 1361.63242771847 428.0087667090597L1361.63242771847 428.0087667090597Q1361.63242771847 423.7595863811909 1364.327509685683 419.8645044139778Q1367.0225916528962 415.96942244676467 1373.2586572266669 411.01204539758436L1373.2586572266669 411.01204539758436Q1368.1439031283062 407.74647162709255 1365.4684932922405 402.3563076926663Q1362.7734113250276 396.9858158893876 1362.7734113250276 390.7497503156171L1362.7734113250276 390.7497503156171Q1362.7734113250276 383.94319293856796 1365.881608046339 378.2186027746335Q1369.0094768987979 372.47434047955153 1375.3045588660111 369.0710617910269Q1381.5996408332242 365.6874552336499 1390.6684932922406 365.6874552336499L1390.6684932922406 365.6874552336499Q1398.0455424725683 365.6874552336499 1404.1242309971585 368.2251601516827L1404.1242309971585 368.2251601516827L1430.760296570929 368.2251601516827ZM1390.5307883742075 406.3300781844696Q1397.6127555873227 406.3300781844696 1401.7832473906012 402.0022093320106Q1405.9734113250274 397.6940126106991 1405.9734113250274 390.6120453975843L1405.9734113250274 390.6120453975843Q1405.9734113250274 383.66778310250237 1401.8619359151912 379.33991425004336Q1397.7504605053552 375.03171752873186 1390.5307883742075 375.03171752873186L1390.5307883742075 375.03171752873186Q1383.4488211610928 375.03171752873186 1379.3373457512569 379.33991425004336Q1375.225870341421 383.66778310250237 1375.225870341421 390.6120453975843L1375.225870341421 390.6120453975843Q1375.225870341421 397.6940126106991 1379.3373457512569 402.0022093320106Q1383.4488211610928 406.3300781844696 1390.5307883742075 406.3300781844696L1390.5307883742075 406.3300781844696ZM1417.5799687020767 451.2218814631581Q1417.5799687020767 441.46450441397775 1405.6783293578144 441.46450441397775L1405.6783293578144 441.46450441397775L1382.3078375545356 441.46450441397775L1380.6160342758471 441.46450441397775Q1375.3832473906011 445.71368474184663 1372.688165423388 449.66778310250237Q1369.993083456175 453.64155359430566 1369.993083456175 458.16614375824L1369.993083456175 458.16614375824Q1369.993083456175 463.96942244676467 1374.4586572266667 466.526799495945Q1378.9242309971585 469.08417654512533 1387.2652146037158 469.08417654512533L1387.2652146037158 469.08417654512533Q1395.7635752594538 469.08417654512533 1402.7078375545357 466.4481109713548Q1409.6520998496176 463.8317175287319 1413.6258703414208 459.6612257254532Q1417.5799687020767 455.47106179102695 1417.5799687020767 451.2218814631581L1417.5799687020767 451.2218814631581ZM1475.0816080463387 436.64483228283024Q1482.1635752594536 436.64483228283024 1487.8291490299453 433.5169634303712Q1493.4947228004373 430.40876670905976 1498.7471818168306 425.0186027746335L1498.7471818168306 425.0186027746335L1503.5668539479782 432.9661437582401Q1497.9012801774866 439.33991425004336 1490.8783293578144 442.8808978566007Q1483.8750506692897 446.4218814631581 1474.943903128306 446.4218814631581L1474.943903128306 446.4218814631581Q1463.0422637840438 446.4218814631581 1454.8980014889619 440.9530290041417Q1446.75373919388 435.50384867627287 1442.720952308634 426.37597982381385Q1438.688165423388 417.2284388402073 1438.688165423388 406.1923732664368L1438.688165423388 406.1923732664368Q1438.688165423388 394.8612257254532 1442.720952308634 385.654668348404Q1446.75373919388 376.4481109713548 1454.9766900135521 371.0579470369286Q1463.199640833224 365.6874552336499 1474.943903128306 365.6874552336499L1474.943903128306 365.6874552336499Q1483.1668539479783 365.6874552336499 1489.7570178824044 369.01204539758436Q1496.3275096856833 372.33663556151873 1500.0258703414208 378.71040605332206Q1503.704558866011 385.08417654512533 1503.704558866011 393.7202421188958L1503.704558866011 393.7202421188958Q1503.704558866011 396.9858158893876 1502.7012801774863 402.2186027746335L1502.7012801774863 402.2186027746335L1451.5734113250273 402.2186027746335Q1451.4357064069945 403.4972912992237 1451.4357064069945 405.8972912992237L1451.4357064069945 405.8972912992237Q1451.4357064069945 419.9235208074204 1457.4553785381422 428.2841765451253Q1463.4750506692899 436.64483228283024 1475.0816080463387 436.64483228283024L1475.0816080463387 436.64483228283024ZM1474.530788374208 375.03171752873186Q1466.1701326365028 375.03171752873186 1460.720952308634 379.85138965987943Q1455.2520998496175 384.6513896598794 1452.9898047676502 393.01204539758436L1452.9898047676502 393.01204539758436L1491.2324277184698 393.01204539758436L1491.2324277184698 391.8907339221745Q1491.2324277184698 383.66778310250237 1486.3537391938798 379.33991425004336Q1481.4553785381422 375.03171752873186 1474.530788374208 375.03171752873186L1474.530788374208 375.03171752873186Z " fill="#FFFAFA&#9;" transform="matrix(0.5818962088098176,0,0,0.5818962088098176,0,65.08626991613832)"/></g></svg>